<svg width="56" height="50" viewBox="0 0 56 50" fill="none" xmlns="http://www.w3.org/2000/svg">
<path d="M53 20H3M25.5 42.5H45C47.8002 42.5 49.2005 42.5 50.27 41.955C51.2108 41.4757 51.9757 40.7108 52.455 39.77C53 38.7005 53 37.3003 53 34.5V15.5C53 12.6997 53 11.2996 52.455 10.2301C51.9757 9.28925 51.2108 8.52435 50.27 8.04497C49.2005 7.5 47.8002 7.5 45 7.5H40.5M25.5 42.5L30.5 47.5M25.5 42.5L30.5 37.5M15.5 42.5H11C8.19972 42.5 6.7996 42.5 5.73005 41.955C4.78923 41.4757 4.02432 40.7108 3.54497 39.77C3 38.7005 3 37.3003 3 34.5V15.5C3 12.6997 3 11.2996 3.54497 10.2301C4.02432 9.28923 4.78925 8.52432 5.73005 8.04497C6.7996 7.5 8.19975 7.5 11 7.5H30.5M30.5 7.5L25.5 12.5M30.5 7.5L25.5 2.5" stroke="#00A8A8" stroke-width="5" stroke-linecap="round" stroke-linejoin="round"/>
</svg>
