<svg width="22" height="22" viewBox="0 0 22 22" fill="none" xmlns="http://www.w3.org/2000/svg">
<g clip-path="url(#clip0_329_5722)">
<rect x="3" y="4" width="16" height="16" rx="8" fill="#FEF08A"/>
<rect x="1" y="8" width="12" height="12" rx="6" fill="#FEF08A"/>
<rect x="9" y="8" width="12" height="12" rx="6" fill="#FEF08A"/>
<rect x="5" y="1" width="12" height="12" rx="6" fill="#FEF08A"/>
<path d="M11 6V12M11 20C6.45283 20 4.17925 20 2.86492 19.0451C1.71851 18.2122 0.979358 16.9319 0.831236 15.5226C0.661419 13.9069 1.79821 11.938 4.07179 8C6.34538 4.06204 7.48217 2.09306 8.96632 1.43227C10.2608 0.855909 11.7391 0.855909 13.0337 1.43227C14.5178 2.09306 15.6546 4.06204 17.9282 8C20.2018 11.938 21.3386 13.9069 21.1688 15.5226C21.0206 16.9319 20.2815 18.2122 19.1351 19.0451C17.8208 20 15.5472 20 11 20Z" stroke="#2D264B" stroke-width="1.5" stroke-linecap="round"/>
<path d="M12 15C12 15.5523 11.5523 16 11 16C10.4477 16 10 15.5523 10 15C10 14.4477 10.4477 14 11 14C11.5523 14 12 14.4477 12 15Z" fill="#2D264B"/>
</g>
<defs>
<clipPath id="clip0_329_5722">
<rect width="22" height="22" fill="white"/>
</clipPath>
</defs>
</svg>
