<svg width="42" height="42" viewBox="0 0 42 42" fill="none" xmlns="http://www.w3.org/2000/svg">
<rect width="42" height="42" rx="5" fill="#00A8A8"/>
<path d="M25.0569 10.918H15.9431C14.8326 10.918 14.2773 10.918 13.8294 11.0738C12.9802 11.3693 12.3134 12.0557 12.0264 12.93C11.875 13.391 11.875 13.9626 11.875 15.1059V28.5266C11.875 29.349 12.819 29.7854 13.4161 29.239C13.7669 28.918 14.2956 28.918 14.6464 29.239L15.1094 29.6627C15.7242 30.2253 16.6508 30.2253 17.2656 29.6627C17.8805 29.1 18.807 29.1 19.4219 29.6627C20.0367 30.2253 20.9633 30.2253 21.5781 29.6627C22.193 29.1 23.1195 29.1 23.7344 29.6627C24.3492 30.2253 25.2758 30.2253 25.8906 29.6627L26.3536 29.239C26.7044 28.918 27.2331 28.918 27.5839 29.239C28.181 29.7854 29.125 29.349 29.125 28.5266V15.1059C29.125 13.9626 29.125 13.391 28.9736 12.93C28.6866 12.0557 28.0198 11.3693 27.1706 11.0738C26.7227 10.918 26.1675 10.918 25.0569 10.918Z" stroke="white" stroke-width="2"/>
<path d="M19.0625 19.543H25.2917" stroke="white" stroke-width="2" stroke-linecap="round"/>
<path d="M15.707 19.543H16.1862" stroke="white" stroke-width="2" stroke-linecap="round"/>
<path d="M15.707 16.1875H16.1862" stroke="white" stroke-width="2" stroke-linecap="round"/>
<path d="M15.707 22.8945H16.1862" stroke="white" stroke-width="2" stroke-linecap="round"/>
<path d="M19.0625 16.1875H25.2917" stroke="white" stroke-width="2" stroke-linecap="round"/>
<path d="M19.0625 22.8945H25.2917" stroke="white" stroke-width="2" stroke-linecap="round"/>
</svg>
