<svg width="42" height="42" viewBox="0 0 42 42" fill="none" xmlns="http://www.w3.org/2000/svg">
<rect width="42" height="42" rx="5" fill="#00A8A8"/>
<path d="M31.8346 18.8333H10.168M19.918 28.5833H28.368C29.5814 28.5833 30.1882 28.5833 30.6516 28.3472C31.0593 28.1395 31.3908 27.808 31.5985 27.4003C31.8346 26.9369 31.8346 26.3301 31.8346 25.1167V16.8833C31.8346 15.6699 31.8346 15.0632 31.5985 14.5997C31.3908 14.192 31.0593 13.8606 30.6516 13.6528C30.1882 13.4167 29.5814 13.4167 28.368 13.4167H26.418M19.918 28.5833L22.0846 30.75M19.918 28.5833L22.0846 26.4167M15.5846 28.5833H13.6346C12.4212 28.5833 11.8145 28.5833 11.351 28.3472C10.9433 28.1395 10.6118 27.808 10.4041 27.4003C10.168 26.9369 10.168 26.3301 10.168 25.1167V16.8833C10.168 15.6699 10.168 15.0632 10.4041 14.5997C10.6118 14.192 10.9433 13.8605 11.351 13.6528C11.8145 13.4167 12.4212 13.4167 13.6346 13.4167H22.0846M22.0846 13.4167L19.918 15.5833M22.0846 13.4167L19.918 11.25" stroke="white" stroke-width="2" stroke-linecap="round" stroke-linejoin="round"/>
</svg>
